<svg xmlns="http://www.w3.org/2000/svg" width="32" height="32" viewBox="0 0 512 512" class="fill-[#850E35]"><path d="M169 57v430h78V57zM25 105v190h46V105zm158 23h18v320h-18zm128.725 7.69l-45.276 8.124l61.825 344.497l45.276-8.124zM89 153v270h62V153zm281.502 28.68l-27.594 11.773l5.494 12.877l27.594-11.773zm12.56 29.433l-27.597 11.772l5.494 12.877l27.593-11.772l-5.492-12.877zm12.555 29.434l-27.594 11.77l99.674 233.628l27.594-11.773zM25 313v30h46v-30zm190 7h18v128h-18zM25 361v126h46V361zm64 80v46h62v-46z"/></svg>